<?xml version="1.0" encoding="UTF-8" standalone="no" ?>
<!DOCTYPE svg PUBLIC "-//W3C//DTD SVG 1.1//EN" "http://www.w3.org/Graphics/SVG/1.1/DTD/svg11.dtd">
<svg xmlns="http://www.w3.org/2000/svg" xmlns:xlink="http://www.w3.org/1999/xlink" version="1.1" width="1200" height="900" viewBox="317.5 331.14 1200 900" xml:space="preserve">
<desc>Created with Fabric.js 5.2.4</desc>
<defs>
</defs>
<g transform="matrix(1 0 0 1 600 450)" id="edf69a5d-506e-4827-9299-b45f2b3be510"  >
<rect style="stroke: none; stroke-width: 1; stroke-dasharray: none; stroke-linecap: butt; stroke-dashoffset: 0; stroke-linejoin: miter; stroke-miterlimit: 4; fill: rgb(255,255,255); fill-rule: nonzero; opacity: 1; visibility: hidden;" vector-effect="non-scaling-stroke"  x="-600" y="-450" rx="0" ry="0" width="1200" height="900" />
</g>
<g transform="matrix(Infinity NaN NaN Infinity 0 0)" id="a1e3e299-fcdd-4a66-9672-33daf095226b"  >
</g>
<g transform="matrix(8.14 0 0 8.14 929.45 776.16)"  >
<g style="" vector-effect="non-scaling-stroke"   >
		<g transform="matrix(0.13 0 0 -0.13 -0.04 -38.62)"  >
<path style="stroke: none; stroke-width: 1; stroke-dasharray: none; stroke-linecap: butt; stroke-dashoffset: 0; stroke-linejoin: miter; stroke-miterlimit: 4; fill: rgb(0,0,0); fill-rule: nonzero; opacity: 1;" vector-effect="non-scaling-stroke"  transform=" translate(-938.7, -1685)" d="M 927 1723 C 915 1712 919 1682 933 1677 C 942 1674 942 1670 931 1657 C 924 1647 922 1640 928 1640 C 933 1640 943 1647 950 1655 C 960 1667 960 1673 950 1685 C 940 1697 940 1703 950 1715 C 960 1727 960 1730 948 1730 C 940 1730 930 1727 927 1723 z" stroke-linecap="round" />
</g>
		<g transform="matrix(0.13 0 0 -0.13 -11.15 -33.95)"  >
<path style="stroke: none; stroke-width: 1; stroke-dasharray: none; stroke-linecap: butt; stroke-dashoffset: 0; stroke-linejoin: miter; stroke-miterlimit: 4; fill: rgb(0,0,0); fill-rule: nonzero; opacity: 1;" vector-effect="non-scaling-stroke"  transform=" translate(-855.37, -1650)" d="M 846 1681 C 831 1665 831 1662 845 1650 C 856 1641 858 1634 850 1626 C 837 1613 837 1600 850 1600 C 855 1600 864 1609 870 1620 C 878 1634 877 1642 866 1652 C 854 1663 854 1667 867 1683 C 876 1692 879 1700 873 1700 C 868 1700 856 1692 846 1681 z" stroke-linecap="round" />
</g>
		<g transform="matrix(0.13 0 0 -0.13 10.85 -34.06)"  >
<path style="stroke: none; stroke-width: 1; stroke-dasharray: none; stroke-linecap: butt; stroke-dashoffset: 0; stroke-linejoin: miter; stroke-miterlimit: 4; fill: rgb(0,0,0); fill-rule: nonzero; opacity: 1;" vector-effect="non-scaling-stroke"  transform=" translate(-1020.37, -1650.8)" d="M 1009 1684 C 999 1672 999 1664 1007 1650 C 1016 1637 1016 1630 1007 1621 C 1001 1615 1000 1607 1003 1603 C 1007 1599 1018 1604 1028 1613 C 1042 1627 1042 1634 1033 1650 C 1025 1662 1024 1671 1030 1675 C 1042 1683 1043 1700 1031 1700 C 1026 1700 1017 1693 1009 1684 z" stroke-linecap="round" />
</g>
		<g transform="matrix(0.13 0 0 -0.13 0.38 -13.52)"  >
<path style="stroke: none; stroke-width: 1; stroke-dasharray: none; stroke-linecap: butt; stroke-dashoffset: 0; stroke-linejoin: miter; stroke-miterlimit: 4; fill: rgb(0,0,0); fill-rule: nonzero; opacity: 1;" vector-effect="non-scaling-stroke"  transform=" translate(-941.8, -1496.77)" d="M 906 1571 C 897 1555 882 1539 872 1536 C 863 1533 847 1518 838 1503 C 828 1486 807 1472 784 1465 C 737 1452 731 1436 766 1413 C 790 1398 816 1395 930 1395 C 1067 1395 1140 1409 1140 1434 C 1140 1448 1098 1470 1071 1470 C 1061 1470 1048 1481 1042 1495 C 1035 1509 1017 1529 1000 1538 C 984 1547 969 1564 968 1575 C 963 1608 924 1606 906 1571 z M 950 1565 C 950 1557 946 1550 940 1550 C 935 1550 930 1557 930 1565 C 930 1573 935 1580 940 1580 C 946 1580 950 1573 950 1565 z M 1004 1509 C 1054 1470 1040 1460 934 1460 C 833 1460 831 1461 873 1508 C 900 1538 967 1538 1004 1509 z M 1110 1440 C 1121 1440 1120 1436 1105 1427 C 1092 1420 1036 1415 950 1415 C 819 1415 745 1424 767 1438 C 776 1443 1018 1445 1110 1440 z" stroke-linecap="round" />
</g>
		<g transform="matrix(0.13 0 0 -0.13 0 18.67)"  >
<path style="stroke: none; stroke-width: 1; stroke-dasharray: none; stroke-linecap: butt; stroke-dashoffset: 0; stroke-linejoin: miter; stroke-miterlimit: 4; fill: rgb(0,0,0); fill-rule: nonzero; opacity: 1;" vector-effect="non-scaling-stroke"  transform=" translate(-938.96, -1255.36)" d="M 626 1442 C 616 1425 630 1207 642 1199 C 648 1195 648 1179 641 1156 C 634 1128 634 1120 643 1123 C 649 1125 659 1143 663 1163 C 672 1199 673 1200 717 1200 L 763 1200 L 756 1159 C 751 1127 754 1113 770 1089 C 795 1054 813 1052 834 1082 L 850 1104 L 866 1082 C 885 1055 906 1054 922 1080 C 929 1091 938 1100 942 1100 C 946 1100 952 1091 955 1080 C 963 1053 995 1055 1014 1082 L 1030 1104 L 1046 1082 C 1066 1053 1084 1054 1106 1088 C 1119 1106 1124 1128 1121 1158 L 1118 1200 L 1164 1200 C 1210 1200 1210 1200 1216 1160 C 1220 1138 1227 1117 1233 1113 C 1240 1109 1241 1122 1236 1150 C 1232 1173 1233 1197 1238 1204 C 1250 1218 1262 1450 1251 1450 C 1242 1450 1230 1352 1230 1274 L 1230 1220 L 1171 1220 L 1112 1220 L 1105 1268 C 1091 1369 1107 1360 940 1360 C 773 1360 787 1367 775 1273 L 768 1220 L 710 1220 L 652 1220 L 645 1328 C 638 1451 636 1458 626 1442 z M 1091 1230 C 1105 1130 1104 1119 1089 1099 L 1072 1077 L 1059 1098 C 1041 1126 1014 1126 999 1098 L 987 1076 L 970 1098 C 960 1110 945 1120 936 1120 C 928 1120 915 1110 909 1098 L 897 1076 L 880 1098 C 857 1126 836 1126 818 1098 L 803 1076 L 787 1101 C 772 1123 772 1134 785 1220 C 793 1272 800 1321 800 1328 C 800 1337 834 1340 938 1340 L 1076 1340 L 1091 1230 z" stroke-linecap="round" />
</g>
</g>
</g>
</svg>